PathFileType	4	(x/y/z)	S04_M20_T12.trc
DataRate	CameraRate	NumFrames	NumMarkers	Units	OrigDataRate	OrigDataStartFrame	OrigNumFrames
240	240	10	51	mm	240	67	535
Frame#	Time	Sternum			R.Acromium			L.Acromium			Top.Head			R.ASIS			L.ASIS			R.PSIS			L.PSIS			R.Great.Tro			L.Great.Tro			R.Iliac.Crest			L.Iliac.Crest			V.Sacral			R.Thigh.Upper.Post			R.Thigh.Lower.Ant			R.Thigh.Lower.Post			R.Thigh.Upper.Ant			R.Knee.Lat			R.Knee.Med			R.Shank.Upper.Post			R.Shank.Lower.Ant			R.Shank.Lower.Post			R.Shank.Upper.Ant			R.Ankle.Lat			R.Ankle.Med			R.Heel.Upper			R.Heel.Med			R.Heel.Lat			R.Toe.Lat			R.Toe.Med			R.Toe.Tip			L.Thigh.Upper.Post			L.Thigh.Lower.Ant			L.Thigh.Lower.Post			L.Thigh.Upper.Ant			L.Knee.Lat			L.Knee.Med			L.Shank.Upper.Post			L.Shank.Lower.Ant			L.Shank.Lower.Post			L.Shank.Upper.Ant			L.Ankle.Lat			L.Ankle.Med			L.Heel.Upper			L.Heel.Med			L.Heel.Lat			L.Toe.Lat			L.Toe.Med			L.Toe.Tip			Cervical.Spine			Back			
		X1	Y1	Z1	X2	Y2	Z2	X3	Y3	Z3	X4	Y4	Z4	X5	Y5	Z5	X6	Y6	Z6	X7	Y7	Z7	X8	Y8	Z8	X9	Y9	Z9	X10	Y10	Z10	X11	Y11	Z11	X12	Y12	Z12	X13	Y13	Z13	X14	Y14	Z14	X15	Y15	Z15	X16	Y16	Z16	X17	Y17	Z17	X18	Y18	Z18	X19	Y19	Z19	X20	Y20	Z20	X21	Y21	Z21	X22	Y22	Z22	X23	Y23	Z23	X24	Y24	Z24	X25	Y25	Z25	X26	Y26	Z26	X27	Y27	Z27	X28	Y28	Z28	X29	Y29	Z29	X30	Y30	Z30	X31	Y31	Z31	X32	Y32	Z32	X33	Y33	Z33	X34	Y34	Z34	X35	Y35	Z35	X36	Y36	Z36	X37	Y37	Z37	X38	Y38	Z38	X39	Y39	Z39	X40	Y40	Z40	X41	Y41	Z41	X42	Y42	Z42	X43	Y43	Z43	X44	Y44	Z44	X45	Y45	Z45	X46	Y46	Z46	X47	Y47	Z47	X48	Y48	Z48	X49	Y49	Z49	X50	Y50	Z50	X51	Y51	Z51	

67	0.275	-453.86	1262.8	252.56	-572.68	1493.7	428.5	-599.41	1471	78.868	-578.38	1814.8	227.77	-485.58	973.21	400.47	-470.44	1001.7	150.54	-692.59	1018	287.53	-681.05	1025.8	208.07	-582.25	892.88	453.1	-576.36	916.81	74.94	-573.6	1069.3	438.78	-574.97	1075.7	96.455	-708.52	980.44	245.48	-586.25	631.6	448.42	-509.23	547.1	426.54	-586.09	540.95	437.31	-501.11	657.28	441.16	-576.85	474.86	433.8	-585.43	469.02	297.71	-793.95	396.09	425.76	-819.71	294.64	393.35	-851.51	355.8	413.08	-764.02	338.3	414.5	-941.16	282.36	397.75	-912.09	264.6	312.71	-993.56	319.18	335.4	-1012.2	296.31	304.55	-1023.1	300.78	366.88	-956.09	151.32	431.49	-923.48	116.71	319.22	-881.89	73.182	373.96	-531.31	674.15	93.18	-425.41	606.36	106.11	-497.6	592.82	111.14	-464.4	685.82	85.453	-433.95	514.85	123.89	-433.61	507.05	248.29	-507.51	328.7	126.89	-432.85	246.9	135.75	-497.35	252.15	137.63	-442.74	322.33	124.74	-448	97.006	155.17	-447.53	110.26	249.15	-526.06	68.711	204.22	-518.41	45.545	239.91	-522.17	38.376	177.54	-337.35	40.376	140	-307.3	53.873	255.49	-250.31	63.847	206.05	-638.9	1535.5	260.46	-715.72	1277	249.82
68	0.27917	-449.07	1263.9	252	-567.95	1494.7	428.06	-594.81	1472.2	78.438	-573.47	1815.9	227.57	-480.08	974.44	399.68	-465.84	1002.7	149.65	-687.45	1019	287.57	-676.16	1026.8	208.06	-576.19	893.95	452.72	-572.13	917.62	74.612	-568.08	1070.4	438.28	-570.3	1076.7	96.016	-703.53	981.43	245.59	-577.57	632.46	447.98	-499.78	548.74	425.81	-576.55	541.83	436.77	-492.7	658.97	440.56	-566.71	475.95	433.05	-575.25	470.24	296.89	-783.57	396.94	424.74	-809.11	295.38	392.51	-841.03	356.53	412.07	-753.52	339.17	413.64	-930.53	282.91	396.75	-901.38	265.07	311.73	-983.26	319.18	334.24	-1001.8	296.02	303.47	-1012.7	300.7	365.81	-944.58	151.99	430.96	-911.88	117.13	318.79	-869.92	74.191	373.65	-528.33	674.84	92.883	-422.92	606.25	105.73	-495.22	593.25	110.83	-461.38	685.97	85.072	-432.12	514.74	123.61	-431.66	507.02	247.97	-506.55	328.89	126.91	-432.19	246.83	135.62	-496.66	252.33	137.65	-441.82	322.29	124.6	-447.89	97.1	155.26	-447.34	110.32	249.2	-526.03	68.799	204.27	-518.39	45.594	239.95	-522.12	38.501	177.55	-337.31	40.324	139.94	-307.22	53.631	255.49	-250.24	63.483	206.02	-634.16	1536.5	260.05	-710.92	1278	249.37
69	0.28333	-444.29	1265	251.45	-563.24	1495.6	427.62	-590.23	1473.3	78.016	-568.56	1816.9	227.41	-474.59	975.68	398.9	-461.26	1003.6	148.78	-682.33	1020	287.62	-671.28	1027.7	208.07	-570.15	895.05	452.35	-567.93	918.45	74.302	-562.56	1071.5	437.8	-565.63	1077.8	95.585	-698.55	982.43	245.71	-568.93	633.37	447.56	-490.39	550.45	425.09	-567.06	542.78	436.23	-484.34	660.72	439.96	-556.62	477.09	432.29	-565.12	471.52	296.08	-773.19	397.68	423.72	-798.43	296	391.68	-830.52	357.12	411.07	-742.97	339.96	412.78	-919.8	283.21	395.77	-890.58	265.34	310.77	-972.9	318.92	333.13	-991.25	295.5	302.41	-1002.2	300.32	364.78	-932.89	152.39	430.36	-900.07	117.38	318.27	-857.71	75.025	373.22	-525.43	675.53	92.588	-420.52	606.15	105.35	-492.93	593.69	110.52	-458.43	686.12	84.686	-430.39	514.63	123.32	-429.83	506.99	247.64	-505.66	329.07	126.93	-431.59	246.77	135.49	-496.03	252.51	137.67	-440.96	322.25	124.44	-447.8	97.191	155.34	-447.17	110.4	249.25	-526	68.885	204.32	-518.37	45.642	239.97	-522.08	38.621	177.57	-337.28	40.276	139.88	-307.14	53.414	255.48	-250.17	63.153	205.98	-629.45	1537.5	259.65	-706.13	1279	248.93
70	0.2875	-439.52	1266.1	250.91	-558.55	1496.6	427.19	-585.68	1474.4	77.601	-563.68	1818	227.29	-469.13	976.92	398.13	-456.68	1004.5	147.91	-677.21	1021	287.68	-666.41	1028.7	208.09	-564.15	896.17	452	-563.76	919.28	74.01	-557.05	1072.7	437.32	-560.97	1078.8	95.161	-693.58	983.44	245.84	-560.33	634.33	447.15	-481.04	552.2	424.37	-557.61	543.77	435.71	-476.02	662.5	439.39	-546.58	478.28	431.52	-555.04	472.87	295.27	-762.81	398.3	422.72	-787.67	296.49	390.86	-819.98	357.55	410.09	-732.38	340.66	411.93	-908.99	283.27	394.81	-879.69	265.43	309.82	-962.47	318.41	332.07	-980.66	294.74	301.39	-991.56	299.65	363.8	-921.02	152.5	429.69	-888.05	117.45	317.67	-845.26	75.686	372.67	-522.6	676.23	92.298	-418.21	606.04	104.96	-490.72	594.14	110.21	-455.54	686.27	84.296	-428.75	514.53	123.03	-428.1	506.96	247.3	-504.84	329.26	126.95	-431.04	246.73	135.35	-495.46	252.69	137.67	-440.17	322.21	124.28	-447.7	97.279	155.42	-447.01	110.47	249.29	-525.97	68.969	204.36	-518.35	45.689	240	-522.04	38.736	177.59	-337.25	40.231	139.82	-307.07	53.217	255.47	-250.11	62.851	205.93	-624.76	1538.5	259.25	-701.34	1279.9	248.5
71	0.29167	-434.76	1267.3	250.38	-553.88	1497.6	426.76	-581.14	1475.5	77.194	-558.82	1819.1	227.19	-463.69	978.16	397.37	-452.11	1005.4	147.06	-672.1	1022.1	287.75	-661.56	1029.7	208.12	-558.17	897.29	451.66	-559.63	920.12	73.734	-551.55	1073.8	436.86	-556.31	1079.9	94.744	-688.62	984.46	245.98	-551.77	635.33	446.75	-471.75	554	423.64	-548.21	544.82	435.2	-467.75	664.32	438.83	-536.58	479.52	430.76	-545.03	474.29	294.46	-752.43	398.82	421.74	-776.84	296.85	390.04	-809.42	357.82	409.12	-721.75	341.27	411.08	-898.09	283.09	393.87	-868.71	265.34	308.89	-951.97	317.65	331.06	-969.99	293.74	300.41	-980.88	298.71	362.86	-908.98	152.34	428.96	-875.83	117.36	316.98	-832.58	76.178	372.01	-519.84	676.94	92.018	-415.99	605.93	104.57	-488.58	594.6	109.91	-452.71	686.43	83.904	-427.2	514.44	122.73	-426.47	506.92	246.96	-504.07	329.44	126.97	-430.54	246.69	135.19	-494.92	252.87	137.68	-439.44	322.19	124.12	-447.62	97.364	155.49	-446.85	110.55	249.32	-525.94	69.052	204.39	-518.34	45.735	240.01	-522	38.847	177.6	-337.22	40.187	139.76	-307.01	53.037	255.45	-250.06	62.572	205.89	-620.08	1539.5	258.86	-696.56	1280.9	248.07
72	0.29583	-430.01	1268.4	249.85	-549.22	1498.6	426.34	-576.63	1476.7	76.794	-553.98	1820.1	227.11	-458.27	979.4	396.62	-447.54	1006.3	146.22	-667.01	1023.1	287.83	-656.71	1030.7	208.15	-552.23	898.42	451.34	-555.53	920.96	73.474	-546.06	1075	436.4	-551.66	1080.9	94.334	-683.67	985.48	246.12	-543.24	636.37	446.37	-462.51	555.85	422.92	-538.85	545.92	434.69	-459.52	666.18	438.28	-526.65	480.8	429.99	-535.08	475.76	293.66	-742.06	399.22	420.77	-765.93	297.1	389.23	-798.83	357.95	408.16	-711.08	341.79	410.25	-887.12	282.67	392.95	-857.65	265.08	307.97	-941.42	316.64	330.11	-959.23	292.5	299.46	-970.12	297.48	361.97	-896.76	151.92	428.18	-863.41	117.1	316.23	-819.67	76.508	371.25	-517.14	677.65	91.752	-413.84	605.83	104.17	-486.53	595.07	109.61	-449.94	686.59	83.513	-425.74	514.35	122.43	-424.93	506.89	246.62	-503.35	329.62	127	-430.08	246.67	135.04	-494.43	253.05	137.69	-438.76	322.17	123.95	-447.53	97.446	155.56	-446.7	110.63	249.36	-525.92	69.135	204.43	-518.32	45.78	240.03	-521.96	38.955	177.62	-337.2	40.145	139.71	-306.94	52.871	255.43	-250.01	62.313	205.84	-615.42	1540.5	258.48	-691.79	1281.8	247.65
73	0.3	-425.28	1269.5	249.33	-544.57	1499.6	425.92	-572.14	1477.8	76.402	-549.16	1821.1	227.07	-452.86	980.63	395.89	-442.98	1007.2	145.39	-661.93	1024.1	287.91	-651.87	1031.7	208.19	-546.31	899.56	451.03	-551.46	921.8	73.23	-540.59	1076.1	435.95	-547.02	1081.9	93.932	-678.73	986.5	246.27	-534.75	637.44	446.01	-453.33	557.74	422.2	-529.53	547.06	434.19	-451.33	668.06	437.73	-516.76	482.12	429.23	-525.2	477.28	292.87	-731.7	399.51	419.83	-754.96	297.23	388.42	-788.21	357.91	407.23	-700.38	342.22	409.41	-876.07	282.03	392.06	-846.51	264.64	307.06	-930.8	315.38	329.2	-948.39	291.03	298.55	-959.28	295.99	361.12	-884.37	151.25	427.35	-850.79	116.69	315.41	-806.54	76.681	370.41	-514.51	678.36	91.504	-411.78	605.72	103.78	-484.54	595.53	109.32	-447.23	686.75	83.126	-424.35	514.27	122.12	-423.48	506.86	246.28	-502.69	329.79	127.03	-429.66	246.65	134.88	-493.98	253.22	137.7	-438.12	322.16	123.78	-447.45	97.526	155.63	-446.56	110.71	249.39	-525.89	69.218	204.46	-518.31	45.825	240.04	-521.93	39.061	177.64	-337.17	40.105	139.66	-306.88	52.714	255.41	-249.97	62.069	205.79	-610.77	1541.5	258.1	-687.02	1282.7	247.24
74	0.30417	-420.54	1270.6	248.82	-539.93	1500.6	425.52	-567.65	1478.9	76.017	-544.36	1822.2	227.04	-447.48	981.85	395.16	-438.43	1008.1	144.57	-656.86	1025.2	288	-647.04	1032.7	208.23	-540.42	900.69	450.73	-547.41	922.63	73	-535.14	1077.2	435.5	-542.4	1083	93.537	-673.8	987.51	246.43	-526.3	638.54	445.65	-444.19	559.67	421.47	-520.26	548.24	433.7	-443.19	669.97	437.19	-506.93	483.48	428.46	-515.41	478.85	292.08	-721.34	399.69	418.91	-743.91	297.23	387.62	-777.58	357.73	406.31	-689.65	342.57	408.59	-864.93	281.17	391.18	-835.3	264.03	306.17	-920.13	313.89	328.35	-937.47	289.32	297.67	-948.36	294.23	360.31	-871.81	150.34	426.49	-837.99	116.12	314.54	-793.19	76.706	369.49	-511.94	679.08	91.278	-409.78	605.6	103.38	-482.61	596.01	109.04	-444.57	686.91	82.746	-423.04	514.2	121.81	-422.1	506.82	245.95	-502.06	329.97	127.07	-429.28	246.65	134.72	-493.56	253.4	137.72	-437.53	322.16	123.61	-447.37	97.604	155.7	-446.42	110.79	249.42	-525.86	69.302	204.49	-518.3	45.87	240.05	-521.9	39.166	177.66	-337.15	40.065	139.61	-306.82	52.564	255.4	-249.92	61.837	205.75	-606.13	1542.5	257.73	-682.26	1283.6	246.83
75	0.30833	-415.82	1271.7	248.32	-535.3	1501.6	425.12	-563.19	1479.9	75.64	-539.58	1823.2	227.03	-442.11	983.06	394.44	-433.89	1008.9	143.76	-651.81	1026.2	288.09	-642.23	1033.6	208.27	-534.55	901.82	450.43	-543.38	923.46	72.783	-529.7	1078.3	435.07	-537.78	1084	93.149	-668.88	988.51	246.58	-517.88	639.68	445.31	-435.12	561.63	420.73	-511.03	549.45	433.22	-435.09	671.89	436.65	-497.15	484.87	427.7	-505.71	480.45	291.29	-710.98	399.75	418.01	-732.81	297.12	386.82	-766.92	357.4	405.41	-678.88	342.83	407.77	-853.72	280.09	390.34	-824.01	263.25	305.3	-909.39	312.16	327.54	-926.47	287.38	296.83	-937.35	292.21	359.55	-859.07	149.21	425.58	-825	115.41	313.62	-779.62	76.593	368.5	-509.41	679.79	91.076	-407.85	605.49	102.99	-480.75	596.48	108.77	-441.97	687.08	82.376	-421.8	514.14	121.51	-420.79	506.79	245.62	-501.48	330.15	127.12	-428.92	246.65	134.55	-493.17	253.57	137.75	-436.98	322.17	123.45	-447.29	97.68	155.76	-446.28	110.87	249.45	-525.84	69.388	204.53	-518.28	45.916	240.05	-521.87	39.272	177.69	-337.13	40.027	139.56	-306.76	52.418	255.38	-249.88	61.613	205.7	-601.51	1543.4	257.36	-677.5	1284.5	246.43
76	0.3125	-411.1	1272.8	247.83	-530.67	1502.5	424.73	-558.73	1481	75.27	-534.83	1824.1	227.04	-436.76	984.25	393.73	-429.36	1009.8	142.96	-646.77	1027.2	288.19	-637.43	1034.6	208.32	-528.7	902.95	450.15	-539.38	924.27	72.578	-524.3	1079.4	434.64	-533.18	1085	92.769	-663.98	989.49	246.74	-509.51	640.84	444.99	-426.09	563.61	419.99	-501.84	550.7	432.73	-427.04	673.84	436.11	-487.43	486.28	426.94	-496.11	482.1	290.51	-700.63	399.7	417.14	-721.64	296.89	386.02	-756.24	356.91	404.53	-668.09	343	406.96	-842.43	278.8	389.51	-812.64	262.31	304.43	-898.6	310.19	326.77	-915.39	285.22	296.03	-926.26	289.95	358.83	-846.17	147.87	424.66	-811.84	114.55	312.66	-765.85	76.351	367.45	-506.94	680.5	90.901	-405.98	605.37	102.61	-478.94	596.96	108.52	-439.41	687.24	82.018	-420.62	514.09	121.2	-419.54	506.76	245.31	-500.93	330.33	127.18	-428.59	246.66	134.4	-492.81	253.74	137.78	-436.47	322.18	123.29	-447.2	97.754	155.83	-446.14	110.95	249.48	-525.81	69.476	204.56	-518.27	45.962	240.06	-521.84	39.38	177.72	-337.1	39.99	139.52	-306.69	52.273	255.36	-249.84	61.394	205.66	-596.89	1544.4	257	-672.75	1285.4	246.03
